<?xml version="1.0" standalone="no"?>
<!DOCTYPE svg PUBLIC "-//W3C//DTD SVG 20010904//EN"
 "http://www.w3.org/TR/2001/REC-SVG-20010904/DTD/svg10.dtd">
<svg version="1.0" xmlns="http://www.w3.org/2000/svg"
 width="192.000000pt" height="192.000000pt" viewBox="0 0 192.000000 192.000000"
 preserveAspectRatio="xMidYMid meet">

<g transform="translate(0.000000,192.000000) scale(0.100000,-0.100000)"
fill="#000000" stroke="none">
<path d="M0 960 l0 -960 200 0 c110 0 200 2 200 5 0 2 -16 12 -35 21 -19 9
-53 33 -76 53 l-41 36 41 51 c23 29 41 62 41 75 1 32 21 56 50 61 13 1 25 9
28 17 3 8 0 11 -6 7 -6 -3 -13 -3 -16 2 -2 4 4 8 14 9 18 2 87 -75 82 -90 -1
-5 2 -6 7 -3 5 3 21 -11 36 -32 16 -20 33 -41 39 -47 6 -5 24 -37 40 -70 52
-106 -27 -95 688 -95 l628 0 0 960 0 960 -960 0 -960 0 0 -960z m1102 418 c7
-13 13 -25 13 -28 2 -13 52 -80 63 -85 7 -3 26 2 41 10 26 13 30 12 50 -9 11
-12 21 -30 21 -39 0 -10 8 -17 18 -17 28 0 62 -28 55 -46 -5 -13 -15 -15 -47
-10 -97 16 -159 9 -165 -19 -2 -5 -7 -15 -12 -21 -10 -12 0 -84 11 -84 4 0 15
-18 24 -39 9 -24 22 -40 33 -41 10 -1 45 -2 78 -3 57 -2 60 -3 63 -29 2 -16 8
-28 14 -28 5 0 8 -7 4 -15 -3 -8 -1 -15 5 -15 14 0 -37 -91 -66 -117 -28 -25
-61 -21 -70 8 -6 18 -24 25 -55 20 -8 -2 -52 -4 -98 -5 -63 -2 -87 -6 -100
-20 -16 -16 -16 -18 8 -37 51 -39 81 -58 103 -65 49 -17 -13 -42 -104 -42 -64
1 -96 -9 -131 -40 -38 -32 -23 -43 56 -39 41 3 79 8 86 12 7 4 24 -5 41 -21
16 -15 29 -24 29 -20 0 5 6 3 13 -3 8 -6 16 -10 18 -8 2 1 -2 -4 -10 -11 -13
-10 -52 -16 -98 -15 -7 1 -11 -3 -8 -7 3 -5 -5 -10 -17 -12 -12 -2 -23 -9 -26
-16 -2 -8 2 -10 13 -6 9 4 21 0 28 -9 7 -9 32 -21 56 -27 68 -18 77 -33 41
-67 -30 -28 -36 -30 -125 -37 -52 -4 -148 21 -139 36 3 4 -2 5 -10 2 -9 -3
-16 -1 -16 5 0 6 -6 11 -13 11 -17 0 -48 95 -35 108 12 12 -1 42 -18 42 -8 0
-14 9 -14 20 0 11 -7 20 -15 20 -8 0 -15 -7 -15 -15 0 -22 -28 -5 -43 25 -7
13 -18 25 -26 28 -9 3 -11 0 -5 -9 7 -12 5 -12 -9 0 -9 7 -17 20 -17 27 0 16
-46 38 -60 29 -5 -3 -11 1 -13 7 -4 10 -8 9 -16 -2 -8 -11 -9 -7 -4 19 4 23 3
32 -5 27 -11 -7 -25 9 -28 34 -1 8 -5 27 -8 41 -8 27 7 49 19 29 3 -5 1 -10
-4 -10 -6 0 -11 -4 -11 -10 0 -5 9 -10 20 -10 10 0 24 -9 30 -20 6 -11 8 -20
4 -20 -3 0 -1 -6 5 -13 6 -8 8 -16 6 -19 -8 -8 55 -19 66 -12 5 3 7 10 4 15
-4 5 -3 9 2 9 9 0 28 41 37 83 4 18 2 27 -6 27 -9 0 -9 3 1 9 12 8 10 11 -11
16 -14 4 -31 16 -37 28 -7 12 -27 31 -44 43 -18 11 -31 26 -29 33 1 7 -7 15
-18 18 -11 3 -17 9 -14 15 3 5 0 15 -6 23 -8 10 -10 28 -5 52 4 21 8 54 10 73
5 53 34 117 62 135 13 9 43 18 66 20 128 11 159 21 194 61 66 78 74 84 94 73
11 -5 19 -19 19 -29 0 -24 31 -22 61 3 10 9 27 17 37 17 9 1 31 7 47 15 41 18
43 18 57 -7z m-793 -232 c21 -13 44 -39 51 -56 12 -29 12 -34 -5 -46 -10 -8
-33 -16 -51 -20 -30 -6 -61 -45 -50 -63 10 -15 72 2 94 26 23 23 25 23 38 6 7
-10 17 -35 20 -55 4 -21 10 -35 14 -33 4 3 11 -2 14 -11 3 -8 2 -12 -4 -9 -17
11 -11 -7 8 -21 10 -8 12 -13 5 -14 -7 0 -10 -6 -7 -14 3 -8 0 -17 -5 -21 -6
-3 -8 -11 -5 -17 4 -6 2 -8 -3 -5 -6 4 -13 1 -16 -7 -3 -7 -18 -18 -34 -24
-56 -19 -135 25 -166 92 -20 41 -33 218 -18 242 9 17 10 16 11 -8 0 -33 15
-36 30 -8 14 27 24 25 54 -7 36 -39 44 -20 11 27 -29 42 -59 51 -84 28 -11
-11 -12 -10 -6 2 26 48 47 51 104 16z m1031 -92 c0 -8 -4 -12 -10 -9 -5 3 -10
1 -10 -4 0 -14 -27 -14 -36 0 -3 6 0 15 7 20 22 14 49 10 49 -7z m-790 -363
c0 -6 -4 -13 -10 -16 -5 -3 -10 1 -10 9 0 9 5 16 10 16 6 0 10 -4 10 -9z"/>
<path d="M905 1180 c-11 -4 -33 -6 -48 -5 -15 2 -27 -1 -27 -6 0 -5 11 -9 24
-9 13 0 37 -3 54 -6 26 -5 30 -10 29 -36 -2 -36 -12 -42 -92 -60 -76 -17 -87
-42 -23 -53 85 -15 113 -9 178 40 33 26 61 52 61 58 8 78 5 82 -69 83 -37 1
-76 -2 -87 -6z"/>
<path d="M795 1170 c-4 -6 -11 -8 -16 -5 -10 7 -13 -8 -3 -18 7 -7 44 14 44
25 0 12 -18 10 -25 -2z"/>
<path d="M910 806 c-68 -46 -119 -100 -117 -123 0 -13 5 -23 11 -23 5 0 38 29
73 65 35 36 61 65 58 65 -3 0 -1 9 5 20 14 25 12 25 -30 -4z"/>
<path d="M472 696 c7 -8 15 -12 17 -11 5 6 -10 25 -20 25 -5 0 -4 -6 3 -14z"/>
<path d="M654 539 c-3 -6 -1 -16 5 -22 8 -8 11 -5 11 11 0 24 -5 28 -16 11z"/>
</g>
</svg>
